<?xml version="1.0" standalone="no"?>
<!DOCTYPE svg PUBLIC "-//W3C//DTD SVG 20010904//EN"
 "http://www.w3.org/TR/2001/REC-SVG-20010904/DTD/svg10.dtd">
<svg version="1.0" xmlns="http://www.w3.org/2000/svg"
 width="2048.000000pt" height="2048.000000pt" viewBox="0 0 2048.000000 2048.000000"
 preserveAspectRatio="xMidYMid meet">

<g transform="translate(0.000000,2048.000000) scale(0.100000,-0.100000)"
fill="#000000" stroke="none">
<path d="M11135 20130 c-11 -5 -35 -9 -53 -9 -59 -2 -239 -52 -330 -93 -42
-18 -98 -33 -170 -45 -18 -3 -35 -9 -38 -14 -3 -5 -13 -9 -23 -9 -22 0 -105
-36 -226 -97 -201 -103 -268 -135 -410 -194 -36 -15 -126 -29 -249 -40 -67 -6
-159 -15 -206 -21 -47 -5 -127 -12 -179 -14 -89 -5 -96 -4 -160 26 -130 63
-211 81 -364 82 -135 0 -193 -10 -295 -48 -34 -13 -71 -24 -81 -24 -10 0 -24
-7 -31 -15 -11 -13 -10 -18 6 -30 10 -8 25 -12 31 -10 17 6 101 -29 256 -106
118 -59 290 -163 295 -178 2 -5 -7 -12 -20 -15 -13 -2 -59 -12 -103 -21 -44
-9 -102 -21 -130 -27 -27 -5 -64 -14 -81 -19 -17 -5 -42 -9 -57 -9 -14 0 -28
-4 -31 -9 -3 -4 -24 -11 -47 -15 -40 -6 -344 -120 -439 -164 -25 -12 -83 -37
-130 -57 -196 -82 -384 -231 -541 -430 -106 -134 -154 -215 -205 -350 -84
-223 -114 -352 -135 -585 -17 -196 11 -421 71 -565 23 -56 45 -105 67 -150 14
-27 33 -71 43 -96 10 -26 27 -66 38 -90 11 -24 30 -69 42 -99 12 -30 33 -72
46 -92 13 -21 24 -40 24 -44 0 -23 111 -183 187 -270 110 -126 122 -141 116
-147 -3 -4 -23 -7 -43 -7 -90 0 -184 -58 -224 -139 -52 -103 -60 -152 -60
-356 0 -233 23 -349 127 -665 82 -249 296 -625 434 -763 53 -53 74 -52 42 1
-82 137 -134 246 -287 607 -60 141 -107 270 -137 380 -9 33 -21 70 -26 83 -5
13 -9 33 -9 45 0 13 -4 27 -9 33 -11 12 -31 207 -31 307 0 130 17 216 53 264
42 54 102 83 173 83 44 0 74 -8 138 -38 44 -21 86 -45 91 -53 6 -8 19 -40 29
-71 17 -51 18 -65 6 -145 -7 -48 -14 -225 -17 -393 -5 -354 11 -548 76 -925
93 -532 313 -1087 586 -1480 142 -203 331 -409 497 -539 l86 -68 -5 -321 c-2
-177 -9 -335 -14 -351 -5 -16 -9 -53 -9 -82 l0 -54 -104 0 c-59 0 -108 4 -111
10 -4 6 -55 10 -120 10 -65 0 -116 -4 -120 -10 -4 -6 -100 -10 -256 -10 -159
0 -249 -4 -249 -10 0 -5 -22 -10 -50 -10 -36 0 -50 -4 -50 -14 0 -7 -9 -25
-20 -39 -11 -14 -20 -34 -20 -45 0 -12 -4 -24 -10 -27 -5 -3 -10 -13 -10 -22
0 -8 -6 -29 -13 -46 -21 -48 -37 -101 -37 -120 0 -10 -4 -25 -9 -35 -5 -9 -17
-44 -26 -77 -9 -33 -21 -70 -26 -83 -5 -13 -9 -32 -9 -43 0 -10 -4 -27 -9 -37
-12 -24 -29 -80 -37 -125 -3 -20 -10 -40 -15 -43 -5 -3 -9 -18 -9 -34 0 -16
-4 -32 -10 -35 -5 -3 -10 -15 -10 -26 0 -10 -4 -27 -9 -37 -6 -9 -18 -44 -27
-77 -9 -33 -21 -64 -26 -69 -4 -6 -8 -17 -8 -26 0 -9 -11 -39 -25 -66 -14 -27
-25 -53 -25 -58 0 -11 -108 -231 -137 -278 -27 -44 -29 -75 -7 -106 20 -29 48
-28 62 3 11 24 16 25 91 25 44 0 108 -7 143 -16 69 -17 167 -52 183 -66 5 -4
15 -8 23 -8 8 0 30 -7 50 -16 21 -9 46 -19 57 -24 11 -4 31 -12 45 -17 42 -18
104 -41 125 -48 17 -5 15 -8 -15 -22 -260 -122 -313 -158 -494 -339 -101 -101
-152 -159 -166 -188 -3 -6 -29 -47 -58 -91 -29 -43 -60 -93 -68 -111 -8 -17
-23 -40 -32 -51 -17 -19 -38 -57 -94 -168 -29 -57 -41 -84 -58 -130 -4 -11
-13 -33 -21 -50 -17 -41 -24 -418 -9 -555 6 -58 13 -127 16 -155 3 -27 9 -59
14 -70 5 -11 11 -38 14 -60 10 -79 26 -171 36 -199 6 -16 10 -42 10 -57 0 -15
5 -31 10 -34 6 -3 10 -17 10 -31 0 -13 4 -32 9 -42 11 -23 28 -78 36 -122 6
-33 17 -65 36 -102 5 -10 9 -27 9 -37 0 -11 4 -22 9 -25 5 -3 12 -26 15 -51 4
-24 11 -47 17 -50 5 -4 9 -17 9 -31 0 -13 5 -24 10 -24 6 0 10 -9 10 -20 0
-11 4 -28 10 -38 16 -29 60 -145 60 -159 0 -7 5 -13 10 -13 6 0 10 -6 10 -12
0 -12 59 -133 220 -446 66 -128 85 -162 188 -329 17 -30 32 -56 32 -59 0 -9
53 -72 136 -162 71 -77 109 -130 101 -138 -2 -3 -10 2 -17 11 -7 8 -17 15 -22
15 -10 0 -121 90 -126 103 -2 4 -9 7 -16 7 -7 0 -23 11 -36 25 -13 14 -29 25
-35 25 -7 0 -20 9 -30 20 -10 11 -22 20 -28 20 -5 0 -22 10 -37 23 -15 12 -37
29 -50 37 -13 8 -35 25 -50 38 -15 12 -32 22 -38 22 -5 0 -16 7 -23 16 -7 9
-22 20 -34 25 -21 9 -57 31 -65 39 -8 8 -43 29 -60 37 -8 3 -26 14 -40 23 -14
10 -47 30 -75 45 -27 16 -52 31 -55 34 -3 4 -27 17 -55 31 -27 13 -68 36 -90
49 -22 14 -62 36 -90 49 -27 13 -69 37 -93 53 -24 16 -46 29 -49 29 -12 0
-118 54 -121 62 -2 4 -9 8 -15 8 -7 0 -64 26 -127 58 -63 32 -133 65 -155 74
-22 9 -65 27 -95 41 -83 38 -141 62 -180 77 -19 7 -39 17 -44 22 -6 4 -20 8
-33 8 -13 0 -23 3 -23 8 0 4 -28 15 -63 26 -64 19 -99 32 -129 47 -10 5 -27 9
-37 9 -11 0 -22 4 -26 9 -3 6 -26 13 -50 17 -25 3 -48 10 -51 15 -3 5 -18 9
-34 9 -16 0 -32 5 -35 10 -3 6 -17 10 -30 10 -13 0 -26 4 -29 9 -3 5 -32 12
-63 16 -32 4 -62 10 -68 15 -5 4 -27 10 -47 14 -21 3 -55 9 -75 12 -21 4 -42
10 -48 14 -5 5 -47 11 -93 15 -45 4 -85 12 -88 16 -3 5 -27 9 -54 9 -27 0 -52
5 -55 10 -3 6 -32 10 -64 10 -31 0 -61 4 -67 9 -5 5 -40 12 -79 15 -38 3 -117
10 -175 15 -143 13 -735 13 -840 0 -47 -6 -105 -13 -130 -16 -25 -3 -49 -9
-54 -14 -6 -5 -23 -9 -38 -9 -30 0 -36 15 -18 50 24 48 28 57 34 88 4 17 12
34 17 37 5 4 9 15 9 26 0 10 4 27 9 37 16 32 28 66 71 202 23 74 46 143 51
152 5 10 9 27 9 37 0 11 5 23 10 26 6 3 10 17 10 30 0 13 5 27 10 30 6 3 10
19 10 35 0 16 4 31 9 34 5 4 12 25 16 48 4 23 11 49 15 58 5 8 14 35 20 60 7
25 16 54 20 65 4 11 15 43 25 70 18 53 32 89 46 117 5 10 9 24 9 33 0 8 6 29
14 47 45 105 55 128 71 173 9 28 25 68 35 90 40 89 50 113 50 119 0 4 20 49
45 102 25 52 45 98 45 102 0 11 204 415 227 449 10 16 23 37 30 48 6 11 34 56
61 100 27 44 62 103 77 130 15 28 36 62 46 77 11 14 19 29 19 32 0 3 21 38 48
77 26 39 52 79 57 89 15 26 151 160 162 160 5 0 20 11 33 25 13 14 29 25 35
25 7 0 20 9 30 20 10 11 22 20 28 20 5 0 23 10 40 23 18 12 41 27 52 33 47 25
190 108 195 113 5 6 39 24 205 109 50 26 92 50 95 53 3 4 23 12 45 19 38 11
54 15 143 41 20 5 62 16 92 24 30 8 73 19 95 25 22 6 54 14 70 17 17 2 39 8
50 13 21 9 157 27 310 41 96 9 184 20 330 40 107 15 365 16 450 2 33 -6 85
-22 115 -35 39 -18 60 -23 73 -16 13 7 15 13 7 28 -5 10 -10 28 -10 39 0 18 5
20 43 15 37 -5 47 -1 80 26 39 33 50 77 24 99 -17 13 -805 5 -821 -9 -6 -4
-54 -11 -106 -14 -96 -5 -152 -12 -315 -41 -49 -9 -105 -18 -123 -21 -18 -4
-35 -10 -38 -15 -3 -5 -22 -9 -43 -9 -21 0 -41 -3 -45 -7 -7 -7 -96 -26 -189
-40 -20 -3 -40 -9 -43 -14 -3 -5 -16 -9 -29 -9 -13 0 -26 -4 -29 -9 -3 -4 -22
-11 -43 -14 -20 -4 -98 -36 -172 -73 -164 -80 -167 -81 -210 -89 -31 -7 -170
-74 -198 -97 -7 -6 -13 -20 -13 -32 0 -16 -12 -28 -44 -44 -24 -12 -49 -29
-56 -37 -7 -8 -16 -15 -21 -15 -23 0 -214 -147 -264 -202 -57 -64 -130 -163
-172 -233 -27 -46 -130 -222 -144 -245 -8 -14 -17 -27 -20 -30 -4 -3 -17 -23
-28 -45 -12 -22 -42 -71 -67 -110 -24 -38 -49 -80 -54 -92 -5 -13 -18 -40 -28
-60 -11 -21 -47 -93 -81 -160 -33 -66 -61 -124 -61 -127 0 -3 -13 -27 -28 -53
-16 -26 -37 -73 -48 -103 -10 -30 -21 -57 -24 -60 -8 -7 -26 -49 -45 -102 -9
-26 -21 -50 -26 -53 -5 -4 -9 -15 -9 -25 0 -11 -9 -35 -20 -55 -11 -20 -20
-40 -20 -46 0 -5 -9 -31 -21 -57 -38 -86 -47 -107 -65 -162 -10 -30 -21 -59
-24 -65 -4 -5 -23 -64 -44 -130 -38 -119 -51 -155 -66 -185 -4 -9 -11 -35 -15
-58 -4 -23 -11 -44 -16 -48 -5 -3 -9 -16 -9 -29 0 -13 -4 -27 -10 -30 -5 -3
-10 -17 -10 -30 0 -13 -4 -26 -9 -29 -5 -4 -12 -25 -16 -48 -7 -42 -11 -52
-33 -95 -7 -13 -12 -30 -12 -38 0 -8 -4 -23 -9 -33 -9 -17 -16 -35 -62 -157
-12 -33 -26 -64 -31 -70 -4 -5 -8 -16 -8 -25 0 -8 -7 -28 -15 -44 -8 -15 -15
-34 -15 -42 0 -7 -9 -29 -20 -49 -11 -20 -20 -42 -20 -50 0 -9 -10 -15 -25
-15 -14 0 -25 -4 -25 -10 0 -5 -10 -10 -22 -10 -22 0 -83 -19 -103 -31 -5 -4
-34 -10 -62 -14 -29 -4 -55 -11 -59 -16 -3 -5 -14 -9 -25 -9 -10 0 -28 -4 -39
-10 -11 -5 -29 -14 -40 -20 -11 -5 -26 -10 -35 -10 -15 0 -96 -25 -130 -40
-11 -5 -42 -16 -68 -25 -27 -8 -62 -22 -79 -31 -17 -9 -39 -13 -50 -11 -14 4
-25 -5 -44 -34 -21 -34 -24 -47 -18 -87 5 -33 16 -55 35 -73 21 -20 29 -36 29
-62 0 -20 5 -39 10 -42 6 -3 10 -44 10 -90 0 -46 5 -87 10 -90 6 -3 10 -30 10
-58 0 -33 8 -68 20 -92 15 -29 20 -59 20 -116 0 -43 4 -88 9 -102 11 -28 38
-262 47 -407 4 -58 10 -109 14 -115 5 -5 11 -39 14 -75 3 -36 8 -94 11 -130 3
-36 9 -72 13 -80 3 -8 12 -80 19 -160 8 -80 18 -185 23 -235 19 -172 30 -291
45 -520 9 -126 20 -275 25 -330 5 -55 14 -145 19 -200 6 -55 13 -119 16 -142
l7 -42 -68 6 c-38 3 -73 9 -78 14 -14 13 -273 11 -281 -1 -3 -5 -26 -10 -50
-10 -24 0 -46 -4 -49 -9 -3 -4 -28 -11 -55 -15 -28 -4 -53 -11 -56 -16 -3 -6
-15 -10 -26 -10 -10 0 -28 -5 -39 -10 -11 -6 -29 -15 -40 -20 -11 -6 -25 -10
-32 -10 -12 0 -157 -65 -202 -91 -11 -6 -40 -23 -65 -37 -25 -14 -92 -54 -149
-89 -56 -34 -105 -63 -107 -63 -3 0 -34 -20 -71 -45 -36 -25 -67 -45 -70 -45
-2 0 -27 -16 -54 -35 -27 -19 -52 -35 -54 -35 -3 0 -35 -21 -71 -48 -37 -26
-80 -56 -95 -67 -126 -90 -420 -385 -420 -421 0 -3 -10 -20 -22 -37 -13 -18
-32 -50 -44 -72 -80 -153 -104 -201 -104 -212 0 -7 -9 -27 -20 -45 -11 -18
-20 -43 -20 -55 0 -12 -5 -25 -10 -28 -6 -3 -10 -17 -10 -30 0 -13 -5 -34 -10
-47 -12 -28 -30 -242 -36 -438 -3 -80 -9 -149 -15 -155 -5 -5 -9 -63 -9 -128
0 -106 2 -122 22 -150 31 -44 40 -49 61 -29 55 50 66 112 77 452 10 293 29
465 59 535 5 11 14 36 21 55 19 54 151 320 182 366 40 61 52 67 124 69 63 1
65 2 90 38 13 20 33 37 42 37 10 0 22 4 28 8 5 4 27 14 49 21 22 7 55 20 74
28 23 10 48 13 79 9 42 -6 73 3 134 35 10 5 27 9 37 9 11 0 22 4 25 9 3 5 36
12 73 16 38 4 73 11 78 15 6 4 28 10 50 13 22 3 65 11 95 17 30 6 105 18 165
26 61 9 139 20 175 25 277 41 341 48 520 58 203 12 583 12 690 0 47 -5 108
-12 135 -15 28 -3 54 -10 59 -15 6 -5 27 -9 48 -9 21 0 38 -4 38 -10 0 -16
-33 -28 -98 -36 -34 -3 -65 -11 -68 -15 -3 -5 -23 -9 -44 -9 -21 0 -41 -4 -44
-9 -3 -5 -20 -11 -38 -14 -61 -10 -133 -28 -150 -37 -10 -6 -25 -10 -33 -10
-8 0 -23 -4 -33 -9 -28 -14 -64 -28 -117 -46 -27 -10 -68 -25 -90 -35 -90 -40
-113 -50 -120 -50 -4 0 -36 -20 -72 -45 -35 -25 -67 -45 -72 -45 -4 0 -22 -16
-41 -35 -19 -19 -42 -35 -52 -35 -28 0 -68 -30 -68 -51 0 -15 -7 -19 -38 -19
-43 0 -77 -26 -63 -48 10 -16 142 -34 186 -27 16 3 221 10 455 16 234 6 463
13 510 16 47 3 128 0 180 -6 52 -6 147 -15 210 -20 63 -5 135 -14 160 -20 25
-5 59 -13 75 -17 17 -4 36 -12 44 -18 11 -8 7 -12 -20 -19 -19 -5 -50 -11 -69
-13 -19 -3 -44 -9 -55 -14 -11 -5 -36 -11 -55 -14 -19 -3 -55 -9 -80 -14 -135
-29 -209 -44 -243 -49 -20 -3 -40 -9 -43 -14 -3 -5 -20 -9 -39 -9 -19 0 -36
-4 -39 -9 -3 -5 -33 -12 -66 -16 -33 -4 -63 -11 -66 -16 -3 -5 -18 -9 -34 -9
-16 0 -32 -4 -35 -10 -3 -5 -19 -10 -35 -10 -16 0 -31 -4 -34 -9 -3 -5 -27
-12 -52 -16 -26 -4 -55 -11 -65 -16 -11 -5 -28 -14 -39 -19 -11 -5 -28 -10
-38 -10 -10 0 -22 -4 -28 -8 -5 -5 -29 -15 -54 -22 -43 -13 -154 -53 -195 -70
-11 -5 -36 -12 -55 -16 -19 -3 -41 -10 -50 -14 -27 -13 -64 -28 -115 -45 -85
-29 -149 -63 -183 -96 -17 -17 -32 -35 -32 -40 0 -5 16 -17 36 -27 32 -16 43
-17 98 -6 60 11 80 17 121 34 11 5 43 16 70 25 28 9 58 21 67 26 10 5 25 9 33
9 8 0 23 4 33 9 35 18 68 31 122 47 30 9 59 21 64 25 6 5 19 9 31 9 12 0 25 4
31 8 5 5 36 17 69 26 66 19 109 34 140 46 11 5 31 11 45 13 14 3 56 15 95 26
38 12 82 21 97 21 15 0 29 4 32 9 3 5 20 11 38 14 18 3 53 11 78 16 25 6 81
17 125 26 44 9 100 20 125 26 25 6 63 13 85 16 22 3 45 9 50 13 6 4 37 10 70
14 60 7 114 20 147 37 10 5 25 9 33 9 63 0 116 102 84 161 -21 40 -238 119
-326 119 -21 0 -43 4 -49 9 -5 5 -54 12 -109 16 -208 13 -933 1 -949 -15 -16
-16 -156 -13 -156 4 0 16 102 106 145 128 17 9 50 21 75 27 72 18 123 33 145
41 61 25 353 89 480 107 22 3 44 9 49 14 6 5 26 9 45 9 41 0 101 19 125 39 19
16 46 68 46 90 0 24 -47 70 -78 77 -15 3 -36 9 -47 14 -23 10 -50 15 -190 36
-55 8 -131 20 -170 26 -96 14 -725 22 -739 8 -5 -5 -57 -10 -117 -10 -59 0
-110 -4 -113 -9 -3 -4 -61 -11 -128 -15 -68 -4 -127 -12 -132 -17 -6 -5 -35
-9 -66 -9 -31 0 -60 -4 -66 -9 -5 -5 -31 -12 -59 -15 -133 -14 -222 -28 -237
-36 -10 -6 -33 -10 -52 -10 -19 0 -37 -4 -40 -9 -3 -5 -23 -11 -43 -14 -21 -3
-58 -11 -83 -17 -25 -6 -72 -17 -105 -24 -33 -7 -67 -15 -75 -18 -8 -4 -26 -8
-40 -11 -14 -2 -32 -6 -40 -8 -8 -2 -14 3 -15 13 0 9 -9 24 -20 32 -11 8 -18
16 -15 18 3 2 37 24 75 49 39 25 97 63 130 85 33 21 73 46 90 54 27 14 107 64
177 112 15 10 30 18 34 18 4 0 21 11 38 24 86 65 381 192 551 237 22 6 54 15
71 20 49 15 322 11 369 -5 36 -13 62 -46 36 -46 -5 0 4 -30 21 -67 28 -59 32
-80 36 -175 3 -59 7 -108 10 -108 2 0 22 5 44 12 44 13 58 43 39 84 -6 14 -11
55 -11 92 0 38 -4 72 -9 77 -5 6 -12 46 -15 90 -16 243 -33 432 -39 445 -6 14
-11 78 -22 290 -3 52 -10 104 -15 115 -5 11 -12 65 -14 120 -9 191 -31 454
-39 461 -4 4 -7 39 -7 79 0 39 -4 75 -9 80 -5 6 -12 39 -15 75 -16 191 -32
329 -39 336 -4 4 -7 33 -7 65 0 32 -5 61 -10 64 -6 3 -10 30 -10 60 0 30 -4
57 -10 60 -5 3 -10 22 -10 40 0 19 -4 54 -10 77 -5 24 -19 93 -30 153 -12 61
-24 119 -27 130 -3 11 -7 72 -8 135 -2 63 -8 128 -14 143 -6 16 -11 55 -11 87
0 32 -4 62 -10 65 -12 7 -14 85 -2 85 4 0 37 -15 72 -34 36 -18 180 -92 320
-163 140 -71 273 -140 295 -153 55 -32 133 -70 144 -70 5 0 11 -4 13 -8 3 -9
113 -62 128 -62 6 0 10 -3 10 -8 0 -4 15 -13 32 -21 48 -20 171 -82 183 -91 6
-4 21 -11 34 -15 13 -4 45 -19 70 -34 25 -14 75 -40 111 -56 36 -17 67 -32 70
-35 3 -3 34 -18 70 -35 36 -16 67 -33 68 -37 2 -5 8 -8 13 -8 14 0 124 -53
127 -62 2 -4 8 -8 13 -8 11 0 161 -72 169 -80 8 -9 119 -60 130 -60 6 0 10 -3
10 -8 0 -4 17 -15 38 -24 20 -10 60 -30 87 -46 78 -45 86 -49 150 -78 33 -15
72 -36 86 -45 14 -10 102 -57 195 -104 93 -48 174 -91 180 -96 33 -27 868
-445 959 -480 98 -38 245 -107 265 -124 24 -20 299 -159 449 -227 75 -33 156
-75 181 -93 25 -17 106 -65 180 -105 74 -40 171 -94 215 -120 44 -25 100 -54
125 -64 25 -9 70 -32 100 -50 79 -48 119 -67 128 -62 10 6 256 -117 299 -149
58 -45 193 -118 393 -214 107 -51 220 -108 250 -126 30 -18 66 -36 80 -40 14
-4 77 -42 140 -85 123 -81 218 -130 255 -130 13 0 36 -11 52 -24 15 -12 69
-50 118 -82 105 -70 241 -170 250 -183 3 -6 28 -22 56 -38 80 -43 102 -114 54
-171 -14 -17 -25 -36 -25 -44 0 -8 -3 -18 -7 -22 -11 -11 -32 -77 -39 -124 -3
-23 -10 -45 -15 -48 -5 -3 -9 -20 -9 -39 0 -19 -4 -37 -10 -40 -5 -3 -10 -19
-10 -35 0 -16 -4 -31 -9 -34 -5 -4 -12 -29 -16 -56 -4 -27 -11 -52 -16 -56 -5
-3 -9 -18 -9 -34 0 -16 -4 -32 -10 -35 -5 -3 -10 -19 -10 -36 0 -16 -4 -29 -9
-29 -5 0 -11 -15 -13 -32 -6 -37 -27 -123 -38 -153 -4 -11 -13 -38 -19 -60 -6
-22 -18 -65 -26 -95 -9 -30 -21 -73 -27 -95 -6 -22 -14 -49 -19 -60 -4 -11
-16 -45 -25 -75 -18 -62 -32 -106 -44 -135 -4 -11 -13 -36 -20 -55 -23 -66
-64 -165 -72 -175 -28 -32 28 -145 72 -145 28 0 80 79 80 121 0 16 4 29 31 94
4 11 11 36 14 55 4 19 15 60 25 90 37 114 80 272 87 318 3 17 9 32 14 32 5 0
9 15 9 34 0 19 4 37 9 40 4 3 11 28 15 55 9 65 32 121 51 121 9 0 18 13 22 30
3 17 10 33 14 36 5 3 9 27 9 54 0 27 5 52 10 55 6 3 10 19 10 36 0 16 4 37 10
47 5 9 14 46 20 82 6 36 15 90 21 120 5 30 14 82 19 115 23 144 27 169 29 153
0 -10 6 -18 11 -18 6 0 10 26 10 58 0 31 4 62 8 67 21 30 66 34 436 39 235 4
384 10 390 16 5 5 36 10 68 10 l58 0 0 -59 c0 -33 -4 -63 -10 -66 -6 -3 -10
-17 -10 -29 0 -22 -21 -100 -40 -151 -57 -154 -68 -210 -46 -233 9 -10 16 -23
16 -28 0 -5 12 -15 27 -21 35 -17 494 -18 510 -2 7 7 138 12 388 15 207 2 380
6 385 9 4 3 31 1 59 -5 28 -5 57 -7 64 -4 22 8 57 97 57 145 0 32 10 65 36
114 19 39 39 74 45 80 5 5 9 17 9 27 0 10 4 18 9 18 5 0 12 17 16 37 6 35 40
94 57 101 4 2 8 10 8 17 0 7 13 24 29 38 36 30 33 67 -5 67 -13 0 -24 4 -24 8
0 22 60 32 188 33 171 1 353 11 967 49 425 27 671 38 1095 51 190 6 467 15
615 20 609 21 2422 46 2452 34 12 -4 11 -10 -6 -33 -11 -16 -39 -66 -64 -113
-60 -116 -142 -246 -184 -293 -33 -36 -35 -42 -29 -89 5 -48 3 -55 -44 -128
-28 -43 -50 -81 -50 -84 0 -4 -8 -19 -19 -33 -10 -15 -37 -61 -59 -102 -21
-41 -54 -97 -71 -125 -17 -27 -39 -66 -49 -85 -10 -19 -30 -54 -44 -76 -15
-23 -38 -64 -51 -90 -14 -27 -36 -71 -50 -99 -14 -27 -31 -68 -38 -90 -6 -22
-15 -42 -18 -45 -4 -3 -15 -25 -26 -49 -10 -24 -32 -59 -47 -79 -15 -19 -28
-43 -28 -54 0 -10 -21 -51 -47 -90 -27 -39 -65 -96 -85 -126 -21 -31 -38 -63
-38 -72 0 -10 14 -36 30 -58 45 -62 60 -58 110 33 18 33 42 76 53 95 10 19 24
42 31 50 7 8 18 29 26 45 8 17 19 37 26 45 6 8 28 47 49 85 21 39 41 75 45 80
5 6 39 71 77 145 89 173 150 285 179 332 13 21 24 40 24 42 0 2 16 33 36 68
20 34 48 83 62 108 14 25 45 73 69 107 23 35 43 67 43 71 0 5 9 17 20 27 11
10 20 23 20 28 0 6 11 25 25 43 14 18 25 37 25 42 0 5 9 17 20 27 11 10 20 23
20 30 0 7 8 19 17 28 10 9 27 33 38 54 11 21 22 40 25 43 8 8 80 119 80 124 0
5 67 110 101 158 10 15 19 39 19 54 0 15 11 42 25 60 14 18 25 37 25 42 0 5 7
15 15 22 19 15 37 53 70 145 15 43 34 77 50 88 25 19 25 19 25 187 l0 169 -66
130 c-59 117 -73 137 -144 204 -74 70 -203 157 -232 157 -8 0 -18 4 -24 8 -5
4 -36 16 -69 26 -33 10 -68 22 -77 27 -10 5 -37 9 -61 9 -24 0 -47 4 -53 9 -5
5 -173 11 -381 13 -281 2 -375 6 -385 15 -14 15 -54 17 -62 4 -8 -13 59 -64
119 -91 103 -46 145 -58 228 -66 37 -4 70 -11 73 -15 3 -5 29 -9 58 -9 28 0
56 -4 62 -9 5 -5 41 -12 79 -15 285 -23 379 -37 445 -68 92 -42 112 -53 127
-70 9 -10 21 -18 27 -18 14 0 95 -85 114 -119 8 -13 22 -38 32 -56 10 -17 21
-50 25 -73 4 -23 11 -44 16 -48 5 -3 9 -23 9 -44 0 -21 5 -42 10 -45 6 -3 10
-37 10 -75 0 -38 -4 -72 -10 -75 -5 -3 -10 -17 -10 -31 0 -13 -4 -32 -8 -42
-5 -9 -20 -39 -33 -67 -26 -54 -53 -67 -93 -46 -15 8 -113 10 -331 7 -170 -3
-760 -9 -1310 -15 -550 -5 -1029 -13 -1065 -16 -36 -3 -202 -10 -370 -15 -168
-6 -413 -14 -545 -19 -132 -6 -355 -14 -495 -20 -140 -5 -291 -13 -335 -16
-159 -12 -413 -26 -560 -30 -82 -3 -159 -10 -170 -15 -11 -5 -87 -12 -170 -14
-82 -3 -278 -12 -435 -21 -157 -9 -339 -18 -405 -21 -66 -2 -129 -9 -140 -14
-11 -5 -69 -12 -130 -14 -60 -3 -209 -12 -330 -21 -208 -14 -268 -20 -510 -45
-55 -6 -140 -13 -190 -16 -49 -3 -94 -10 -99 -15 -13 -12 -193 -12 -201 1 -3
6 -3 10 2 10 7 0 20 9 93 67 15 13 32 23 38 23 5 0 15 6 21 14 7 8 31 24 54
36 23 12 44 25 47 29 9 12 611 317 700 355 66 28 185 83 265 122 39 19 75 34
80 34 6 0 31 11 57 24 26 13 80 36 120 51 40 15 91 35 113 45 22 10 65 26 95
35 30 10 64 21 75 26 11 4 36 12 55 19 19 7 44 16 55 20 11 5 56 20 100 35 44
14 89 30 100 35 38 15 127 40 146 40 10 0 21 5 24 10 3 6 17 10 31 10 13 0 24
5 24 10 0 6 11 10 24 10 14 0 27 4 30 9 4 5 29 12 56 16 27 4 52 11 56 16 3 5
16 9 29 9 13 0 27 5 30 10 3 6 17 10 30 10 13 0 26 4 29 9 3 5 27 12 52 16 26
3 58 11 73 17 53 21 67 26 111 38 25 7 52 15 60 18 8 3 40 11 70 18 30 7 73
18 95 24 22 6 54 14 70 17 17 3 35 9 40 13 6 5 36 11 68 15 31 4 60 11 63 16
3 5 20 9 39 9 19 0 37 5 40 10 3 6 21 10 39 10 18 0 36 3 40 8 7 6 96 25 189
39 20 3 40 9 43 14 3 5 21 9 40 9 19 0 42 4 52 9 9 5 62 17 117 26 55 9 114
21 131 26 17 5 44 9 62 9 17 0 34 5 37 10 3 6 25 10 49 10 23 0 46 3 50 8 7 6
98 22 221 38 22 3 49 9 60 14 11 5 40 11 65 14 25 3 74 10 110 16 36 6 110 16
165 21 55 6 108 15 117 20 10 5 42 9 72 9 30 0 58 5 61 10 3 6 31 10 60 10 30
0 74 5 97 10 24 6 111 15 193 20 169 10 224 18 243 33 9 7 20 6 36 -3 15 -8
43 -10 77 -6 30 3 95 10 144 15 50 6 126 15 170 20 104 13 420 13 510 0 39 -5
101 -12 140 -15 38 -3 74 -9 80 -13 22 -17 44 -20 38 -5 -4 12 22 14 178 14
100 0 196 4 213 9 37 12 150 30 226 38 30 2 59 9 64 14 6 5 29 9 52 9 24 0 46
4 49 10 8 14 157 13 192 -1 66 -27 80 -35 111 -64 19 -16 38 -40 42 -51 9 -23
61 -54 90 -54 9 0 21 14 28 34 11 29 10 38 -5 64 -10 16 -31 52 -47 79 -16 27
-45 60 -65 73 -58 39 -123 70 -146 70 -11 0 -26 5 -32 11 -17 17 -256 -2 -277
-22 -6 -5 -36 -9 -69 -9 -32 0 -67 -4 -77 -10 -10 -5 -57 -13 -104 -16 -48 -4
-89 -11 -92 -16 -7 -11 -310 -10 -348 1 -43 13 -150 32 -220 38 -57 5 -109 29
-129 61 -12 18 -126 16 -133 -3 -4 -8 -19 -15 -34 -15 -16 0 -32 -5 -35 -10
-3 -6 -28 -10 -55 -10 -27 0 -52 -4 -55 -10 -10 -16 -52 -11 -87 10 -35 21
-135 28 -154 11 -5 -5 -38 -12 -74 -15 -125 -10 -175 -17 -195 -26 -11 -5
-123 -11 -250 -15 -126 -3 -234 -10 -239 -15 -6 -6 -43 -10 -82 -10 -40 0 -76
-4 -79 -10 -3 -5 -37 -10 -74 -10 -37 0 -71 -3 -75 -8 -7 -6 -95 -18 -296 -38
-30 -3 -59 -10 -64 -15 -6 -5 -34 -9 -62 -9 -29 0 -56 -5 -59 -10 -3 -6 -28
-10 -54 -10 -26 0 -51 -3 -55 -7 -7 -7 -96 -22 -236 -39 -25 -3 -49 -10 -54
-15 -6 -5 -29 -9 -51 -9 -23 0 -45 -3 -49 -7 -7 -7 -85 -22 -211 -39 -22 -4
-44 -10 -49 -15 -6 -5 -26 -9 -46 -9 -20 0 -40 -4 -46 -9 -5 -5 -27 -11 -49
-14 -86 -12 -184 -32 -191 -39 -4 -5 -22 -8 -40 -8 -18 0 -35 -4 -38 -9 -3 -5
-20 -11 -38 -14 -90 -15 -155 -29 -173 -37 -11 -5 -31 -11 -45 -14 -14 -2 -43
-10 -65 -16 -22 -6 -53 -14 -70 -17 -16 -3 -34 -9 -40 -13 -5 -4 -34 -11 -62
-15 -29 -4 -53 -11 -53 -16 0 -5 -15 -9 -33 -9 -19 0 -37 -3 -41 -7 -11 -11
-77 -32 -124 -39 -23 -3 -45 -10 -48 -15 -3 -5 -14 -9 -25 -9 -10 0 -27 -4
-37 -9 -24 -12 -80 -29 -125 -37 -20 -3 -40 -10 -43 -15 -3 -5 -16 -9 -29 -9
-13 0 -27 -5 -30 -10 -3 -6 -17 -10 -31 -10 -13 0 -32 -4 -42 -10 -23 -13
-109 -40 -127 -40 -9 0 -24 -4 -35 -10 -11 -5 -29 -14 -40 -20 -11 -5 -27 -10
-35 -10 -8 0 -23 -4 -33 -9 -9 -5 -39 -17 -67 -26 -27 -9 -60 -21 -72 -26 -13
-5 -33 -13 -45 -18 -13 -5 -36 -12 -52 -16 -16 -3 -48 -15 -70 -26 -22 -10
-48 -19 -58 -19 -10 0 -18 -4 -18 -8 0 -5 -19 -14 -42 -21 -45 -14 -102 -39
-244 -107 -51 -24 -95 -44 -99 -44 -4 0 -49 -20 -101 -45 -51 -25 -96 -45
-101 -45 -10 0 -559 -275 -576 -288 -7 -5 -33 -21 -59 -35 -44 -24 -48 -25
-48 -8 0 10 10 26 21 37 12 10 24 26 28 35 26 70 708 760 846 857 6 4 38 31
71 60 34 28 64 52 68 52 3 0 37 24 75 53 102 77 230 169 251 181 39 23 135 91
138 98 2 5 9 8 17 8 7 0 19 7 26 16 7 9 22 20 34 25 11 5 29 15 40 21 65 42
126 78 131 78 3 0 25 14 49 30 24 17 46 30 49 30 2 0 41 23 85 50 44 28 83 50
87 50 3 0 18 8 32 19 25 17 113 66 217 120 69 35 246 116 330 150 44 18 132
55 162 67 17 8 36 14 42 14 6 0 19 4 29 9 9 5 31 14 47 21 17 7 37 16 46 20 9
5 34 12 55 16 22 3 44 10 49 14 6 3 30 12 55 20 25 7 64 19 88 26 23 8 51 14
62 14 10 0 22 5 25 10 3 6 19 10 35 10 16 0 32 5 35 10 3 6 17 10 30 10 13 0
27 5 30 10 3 6 19 10 35 10 16 0 31 4 34 9 3 5 33 12 66 16 33 4 63 11 66 16
3 5 20 9 39 9 19 0 37 4 40 10 3 6 22 10 41 10 19 0 42 4 52 10 15 9 82 22
185 37 20 3 40 9 43 14 3 5 20 9 39 9 19 0 36 4 39 9 3 4 34 12 68 15 35 4 67
11 73 16 5 4 26 10 45 13 82 14 106 19 125 27 11 5 34 11 50 14 17 3 66 12
110 21 44 9 96 18 115 21 19 3 44 9 55 14 11 5 36 11 55 15 19 3 58 10 85 16
76 15 224 40 275 45 25 3 54 9 65 14 11 5 40 11 65 14 25 3 101 12 170 21 69
9 152 18 185 21 33 3 64 10 69 15 6 5 35 9 66 9 31 0 60 3 64 7 7 8 202 28
381 39 50 3 94 10 99 15 6 5 42 9 80 9 39 0 118 7 176 14 119 16 377 11 423
-7 21 -10 27 -18 27 -44 0 -17 -4 -34 -9 -38 -6 -3 -13 -37 -17 -75 -6 -65 -9
-71 -37 -85 -16 -8 -52 -15 -78 -15 -26 0 -50 -4 -53 -9 -3 -4 -30 -11 -60
-14 -54 -5 -114 -21 -148 -38 -10 -5 -29 -9 -42 -9 -14 0 -28 -4 -31 -10 -3
-5 -14 -10 -24 -10 -35 0 -216 -98 -254 -138 -33 -34 -39 -47 -40 -87 -2 -45
1 -50 50 -95 55 -51 70 -55 202 -66 39 -4 67 -2 74 5 6 6 38 11 72 11 34 0 65
4 71 9 43 41 756 21 959 -27 187 -44 209 -52 241 -78 26 -21 27 -22 6 -17 -12
3 -25 9 -28 14 -3 5 -18 9 -33 9 -15 0 -31 4 -37 9 -21 21 -478 41 -498 21 -5
-5 -29 -10 -52 -10 -24 0 -45 -4 -48 -9 -3 -5 -20 -11 -38 -14 -18 -3 -53 -10
-78 -16 -25 -5 -68 -10 -97 -11 -28 0 -55 -4 -58 -10 -3 -6 -48 -10 -100 -10
-52 0 -97 -4 -100 -10 -4 -6 -65 -10 -150 -10 -85 0 -146 -4 -150 -10 -3 -6
-19 -10 -36 -10 -66 0 -16 -85 66 -110 22 -7 49 -17 60 -22 24 -11 232 -4 350
11 201 25 241 31 263 41 13 5 34 10 47 10 13 0 27 5 30 10 3 6 19 10 34 10 15
0 31 4 37 9 31 31 404 28 514 -4 58 -16 113 -43 182 -88 31 -20 61 -37 66 -37
14 0 72 -65 72 -81 0 -18 27 -76 39 -84 12 -7 94 27 108 45 8 8 12 36 10 65
-2 44 -6 52 -34 70 -24 15 -32 28 -33 48 0 16 -14 49 -32 75 -47 68 -194 218
-242 246 -67 40 -244 126 -258 126 -8 0 -19 5 -25 11 -5 5 -48 15 -94 20 -292
35 -320 36 -544 20 -77 -6 -212 -15 -300 -21 -87 -5 -164 -15 -169 -20 -6 -6
-27 -10 -48 -10 -21 0 -47 -5 -57 -12 -10 -6 -26 -8 -36 -4 -29 11 -2 31 67
50 35 10 73 22 86 27 13 5 32 9 43 9 10 0 27 4 37 10 28 16 111 40 137 40 13
0 27 5 30 10 3 6 19 10 35 10 16 0 32 4 35 10 3 6 21 10 39 10 17 0 37 5 43
11 9 9 20 9 42 -1 22 -9 35 -9 44 -2 6 5 32 15 57 22 43 11 96 32 132 51 10 5
48 9 84 9 49 0 70 4 78 16 10 13 44 15 232 15 208 0 223 1 239 19 23 26 47 25
63 0 9 -16 23 -20 61 -20 51 0 87 -12 189 -62 74 -37 222 -174 222 -206 0 -11
5 -24 10 -27 6 -3 10 -17 10 -30 0 -13 5 -27 10 -30 6 -3 10 -15 10 -26 0 -15
5 -18 23 -14 18 5 27 -3 51 -40 34 -55 92 -173 131 -268 16 -37 32 -70 37 -73
4 -3 8 -14 8 -24 0 -11 7 -36 16 -57 9 -21 22 -49 28 -63 10 -25 93 -162 127
-212 11 -15 19 -31 19 -36 0 -5 9 -17 20 -27 11 -10 20 -23 20 -28 0 -6 17
-31 38 -56 21 -25 62 -82 91 -126 29 -44 65 -95 80 -115 52 -69 71 -115 71
-174 0 -31 4 -64 9 -74 17 -34 41 -118 41 -144 0 -15 5 -30 10 -33 6 -3 10
-35 10 -70 0 -35 5 -67 10 -70 6 -3 10 -24 10 -45 0 -21 -4 -42 -10 -45 -5 -3
-10 -14 -10 -23 -1 -48 -204 -406 -259 -456 -12 -11 -21 -24 -21 -29 0 -6 -26
-39 -57 -73 -142 -155 -180 -216 -253 -399 -4 -11 -17 -41 -29 -67 -12 -26
-21 -55 -21 -63 0 -19 -23 -72 -93 -215 -46 -94 -78 -147 -140 -232 -12 -15
-18 -30 -15 -33 9 -9 68 26 79 48 18 36 72 87 90 87 19 0 53 56 83 135 23 59
145 300 209 411 26 45 88 125 144 186 99 108 136 151 163 193 8 12 32 48 53
80 21 32 57 92 79 134 22 42 48 87 57 101 17 25 36 65 61 128 16 42 10 326 -8
344 -7 7 -12 22 -12 35 0 22 -7 43 -43 123 -12 27 -22 76 -25 122 -3 59 -9 81
-23 94 -11 9 -19 21 -19 26 0 11 -51 81 -62 86 -5 2 -8 9 -8 17 0 7 -7 19 -16
26 -9 7 -20 22 -25 34 -14 31 -76 123 -99 145 -18 18 -36 47 -49 75 -5 12 -16
27 -25 34 -9 7 -16 18 -16 23 0 6 -11 23 -25 40 -14 16 -25 35 -25 43 0 7 -7
18 -15 25 -17 14 -95 171 -95 190 0 5 -4 18 -10 28 -5 9 -32 67 -60 127 -28
61 -57 121 -63 135 -7 14 -30 52 -52 85 -22 33 -46 71 -52 85 -7 14 -23 50
-38 80 -14 30 -34 69 -45 85 -11 17 -24 40 -29 51 -19 43 -198 159 -316 205
-69 27 -180 59 -205 59 -17 0 -30 5 -30 10 0 12 -343 14 -354 3 -4 -5 -51 -14
-104 -21 -149 -19 -172 -23 -178 -33 -3 -5 -18 -9 -33 -9 -15 0 -31 -3 -34 -7
-4 -3 -30 -14 -57 -24 -70 -24 -72 -15 -40 141 7 30 14 85 17 122 3 40 10 72
19 79 9 7 14 31 14 64 0 50 -2 53 -41 80 -44 29 -45 29 -189 5 -36 -6 -108
-15 -160 -20 -52 -4 -104 -10 -115 -12 -22 -3 -18 -31 -47 304 -7 80 -16 150
-20 154 -5 4 -8 29 -8 55 0 26 -4 50 -9 53 -5 3 -11 23 -14 43 -12 80 -28 159
-37 175 -6 10 -10 27 -10 38 0 11 -4 28 -9 38 -5 9 -14 35 -20 57 -6 22 -18
65 -26 95 -9 30 -21 73 -27 95 -10 39 -15 53 -36 106 -6 15 -14 47 -17 73 -4
25 -11 49 -16 52 -5 3 -9 16 -9 29 0 13 -4 27 -10 30 -5 3 -10 19 -10 35 0 16
-4 31 -9 35 -5 3 -13 30 -16 60 -4 31 -11 58 -16 61 -5 3 -9 18 -9 34 0 16 -4
31 -9 34 -5 3 -11 20 -14 38 -5 35 -41 182 -57 234 -6 17 -10 40 -10 52 0 11
-4 23 -9 26 -5 3 -11 20 -14 38 -13 77 -33 157 -39 164 -5 4 -8 20 -8 35 0 15
-4 31 -10 34 -5 3 -10 17 -10 30 0 13 -4 27 -10 30 -5 3 -10 17 -10 30 0 26
-24 109 -40 137 -6 10 -10 27 -10 37 0 11 -4 23 -10 26 -5 3 -10 17 -10 30 0
13 -4 26 -9 29 -5 3 -12 22 -15 42 -4 19 -16 51 -27 70 -10 19 -19 43 -19 54
0 10 -4 21 -9 24 -5 3 -12 18 -15 33 -4 16 -15 46 -25 68 -17 36 -28 61 -76
170 -57 130 -123 257 -196 378 -16 26 -29 50 -29 53 0 3 -13 25 -30 49 -16 24
-30 48 -30 54 0 5 -10 22 -23 38 -13 15 -31 44 -40 63 -31 62 -131 212 -186
278 -71 85 -177 194 -213 220 -69 51 -171 127 -182 137 -18 15 -48 34 -76 46
-25 11 -25 11 -3 19 18 8 52 50 40 50 -13 0 -214 63 -222 69 -5 5 -23 11 -40
15 -33 8 -75 43 -75 62 0 6 -15 23 -33 37 -19 14 -38 40 -43 59 -8 28 -16 35
-54 45 -25 6 -45 12 -45 14 0 1 -43 8 -95 15 -52 7 -120 18 -150 24 -30 6 -73
13 -95 16 -22 3 -47 8 -55 11 -8 4 -60 13 -115 20 -55 7 -127 18 -160 23 -33
6 -82 14 -110 16 -27 3 -54 10 -60 15 -5 5 -30 9 -56 9 -26 0 -50 4 -53 9 -3
5 -33 12 -66 16 -33 4 -63 11 -66 16 -3 5 -18 9 -34 9 -16 0 -32 5 -35 10 -3
6 -21 10 -39 10 -17 0 -38 6 -44 12 -17 17 -635 23 -792 8 -255 -25 -255 -25
-268 5 -7 14 -12 37 -12 50 0 13 -4 26 -9 29 -5 3 -11 23 -14 43 -3 21 -10 58
-17 83 -6 25 -16 68 -21 95 -6 28 -14 55 -19 60 -4 6 -11 28 -14 51 -6 31 -3
44 8 54 9 7 16 25 16 41 0 55 -91 85 -174 60 -17 -6 -76 -15 -131 -20 -55 -6
-129 -15 -165 -21 -36 -6 -96 -13 -135 -16 -38 -3 -79 -9 -90 -14 -11 -5 -96
-14 -190 -19 -189 -11 -240 -17 -272 -33 -42 -21 -53 -5 -53 75 0 41 -5 78
-11 84 -17 17 -17 469 -1 485 18 18 16 172 -2 187 -7 6 -16 27 -19 47 -6 34
-3 38 181 222 229 229 428 461 570 665 99 143 229 357 301 497 35 67 52 87
165 184 341 294 713 748 848 1037 54 115 83 185 114 277 31 93 34 115 34 215
0 200 -39 286 -150 335 -74 33 -137 45 -200 39 -45 -4 -62 -2 -72 10 -9 11
-23 13 -52 9 l-39 -7 7 83 c4 46 11 136 16 201 7 98 13 125 34 161 25 43 53
113 75 191 61 216 60 212 60 168 1 -51 10 -54 35 -10 l20 32 5 -27 c9 -41 24
-22 50 62 13 41 29 84 35 95 7 11 21 41 31 68 10 26 20 45 24 42 3 -3 4 -42 2
-85 -2 -52 1 -80 8 -80 6 0 14 12 17 28 4 15 13 36 20 47 12 17 14 10 14 -60
0 -79 13 -127 24 -95 7 19 26 137 33 210 6 55 17 81 60 133 l23 28 10 -26 c5
-14 10 -31 10 -36 0 -22 25 -1 34 28 4 17 28 55 52 84 24 30 44 57 44 61 0 5
7 8 15 8 14 0 21 -18 27 -69 5 -41 25 -34 36 11 20 77 32 148 32 189 0 24 13
67 34 112 34 71 52 125 75 220 6 26 11 120 11 208 0 182 -6 202 -92 314 -56
73 -78 104 -108 157 -42 73 -226 247 -315 300 -184 107 -307 164 -435 201
-158 46 -177 49 -336 50 l-159 2 -2 60 c-8 190 -50 289 -226 523 -153 206
-458 442 -692 536 -38 16 -79 32 -90 37 -11 4 -56 15 -100 24 -44 8 -102 20
-128 25 -59 12 -254 12 -282 0z m-1251 -2529 c3 -4 19 -11 35 -14 42 -9 98
-62 128 -121 35 -70 63 -107 74 -100 5 3 6 10 3 16 -4 6 1 6 14 -1 12 -6 25
-17 29 -24 4 -7 32 -33 62 -60 54 -47 89 -62 77 -31 -24 61 -10 93 14 34 7
-16 18 -30 25 -30 7 0 18 -7 25 -15 7 -9 19 -14 26 -11 7 3 36 -13 65 -35 53
-39 79 -49 79 -28 0 18 45 2 112 -41 72 -46 99 -52 61 -14 -14 14 -23 27 -20
30 2 3 28 2 57 -2 41 -5 62 -16 100 -48 58 -50 118 -83 165 -92 30 -5 34 -4
29 10 -3 9 -14 16 -23 17 -10 0 -12 2 -3 6 7 3 35 -7 63 -22 72 -37 83 -26 19
22 -30 22 -61 47 -69 56 -12 15 -9 17 41 17 29 0 62 -6 73 -13 11 -8 49 -29
85 -48 160 -85 244 -93 108 -11 -49 30 -88 58 -88 63 0 16 37 1 125 -48 129
-72 287 -116 171 -47 -84 49 -169 109 -173 120 -2 7 15 14 42 18 43 7 50 4
123 -44 124 -82 403 -210 457 -210 17 0 16 3 -10 25 -16 13 -33 24 -37 25 -13
0 -177 102 -190 118 -23 27 80 6 157 -33 85 -42 174 -63 186 -44 12 20 155
-59 249 -136 86 -71 188 -140 195 -133 3 3 -17 26 -45 52 -54 51 -39 55 32 10
45 -29 169 -86 223 -104 22 -7 59 -21 82 -31 37 -17 69 -25 156 -44 28 -6 29
-7 23 -58 -3 -29 -10 -119 -16 -202 -6 -82 -17 -211 -25 -285 -8 -74 -18 -157
-21 -185 -9 -88 -12 -93 -74 -135 -33 -22 -60 -45 -60 -49 0 -5 -36 -36 -80
-70 -44 -34 -144 -126 -222 -204 l-141 -142 -21 30 c-11 17 -48 57 -81 91
-102 103 -260 162 -485 183 -160 15 -484 -17 -593 -58 -12 -5 -37 -6 -55 -4
-18 3 -46 0 -62 -7 -47 -19 -164 -151 -185 -207 -23 -63 -29 -69 -57 -51 -13
8 -41 18 -63 21 -22 4 -62 11 -90 16 -27 6 -149 10 -270 10 -121 1 -257 4
-302 8 -83 6 -83 6 -83 34 0 60 -55 248 -96 331 -29 58 -126 163 -206 223 -64
48 -166 101 -219 115 -19 5 -52 14 -74 20 -192 51 -390 52 -565 1 -19 -5 -67
-18 -106 -29 -82 -22 -94 -28 -94 -46 0 -36 52 -35 230 5 76 17 247 22 313 10
135 -26 258 -65 347 -109 79 -39 209 -153 260 -227 39 -57 68 -146 82 -248 13
-96 11 -101 -42 -112 -14 -3 -37 -10 -52 -14 -26 -9 -35 -2 -138 99 -109 108
-182 160 -270 192 -63 24 -211 37 -300 27 -41 -4 -121 -8 -178 -8 -119 -1
-202 -24 -336 -94 -100 -52 -166 -103 -213 -168 -30 -40 -39 -46 -41 -31 -2
10 -26 47 -55 81 -51 60 -90 128 -161 281 -19 41 -55 106 -80 144 -37 57 -43
73 -35 93 5 13 9 47 9 75 0 27 7 75 16 105 9 30 14 68 10 84 -6 30 -4 31 64
44 82 15 258 80 400 147 58 28 125 59 150 71 25 12 78 40 118 64 41 24 76 43
79 43 2 0 48 29 102 64 392 259 704 596 862 932 47 98 60 116 73 95z m2151
-553 c14 -6 25 -15 25 -20 0 -6 -6 -7 -12 -4 -7 3 -21 9 -30 12 -10 4 -18 10
-18 15 0 12 4 11 35 -3z m1143 -455 c-5 -25 -28 -28 -28 -4 0 12 6 21 16 21 9
0 14 -7 12 -17z m155 -808 c79 -8 134 -37 152 -80 22 -54 20 -182 -6 -267 -29
-98 -116 -279 -205 -426 -259 -428 -664 -986 -664 -914 0 4 4 12 9 18 29 31
248 637 312 864 59 213 107 418 144 625 18 103 35 164 47 171 4 3 27 9 50 13
42 8 59 8 161 -4z m-5317 -215 c71 -240 159 -411 229 -444 27 -13 35 -24 41
-54 8 -49 43 -148 68 -192 47 -84 158 -164 271 -195 33 -9 85 -25 115 -35 136
-45 266 -47 470 -5 209 43 372 126 502 255 63 63 85 107 94 186 6 50 9 54 41
65 57 18 64 9 58 -68 -8 -95 -34 -307 -45 -373 -5 -30 -14 -86 -20 -125 -6
-38 -20 -124 -31 -190 -11 -66 -25 -145 -30 -175 -72 -432 -68 -581 20 -719
35 -55 81 -94 139 -118 32 -13 46 -14 102 -3 87 16 212 76 283 134 84 69 74
74 -78 31 -37 -11 -100 -18 -165 -19 -144 -2 -173 17 -220 141 -14 36 -9 201
9 318 6 39 18 120 27 180 8 61 20 133 25 160 44 243 89 573 105 777 6 76 9 87
28 92 34 9 265 7 284 -3 9 -5 69 -14 132 -19 102 -9 168 -24 235 -51 77 -32
77 -32 101 -16 13 8 26 26 30 40 10 41 24 28 24 -22 0 -94 91 -236 199 -311
31 -21 85 -50 121 -65 138 -55 211 -68 421 -74 203 -6 284 6 406 62 93 43 214
126 262 182 32 36 93 156 115 226 3 9 12 17 21 17 9 0 91 75 183 168 144 144
274 252 304 252 14 0 6 -69 -23 -180 -4 -19 -20 -87 -35 -150 -74 -326 -208
-725 -361 -1080 -277 -639 -795 -1309 -1325 -1712 -169 -129 -447 -274 -653
-342 -122 -39 -151 -47 -257 -66 -281 -51 -569 -3 -866 142 -187 91 -362 225
-523 399 -93 101 -128 144 -229 279 -183 246 -367 641 -488 1045 -44 146 -61
227 -110 525 -54 331 -57 370 -57 765 1 456 8 509 51 365z m1293 -91 c116 -18
183 -58 320 -192 86 -85 101 -110 101 -173 0 -84 -64 -158 -230 -267 -193
-127 -531 -181 -760 -123 -192 50 -256 80 -319 151 -50 57 -91 161 -91 231 0
93 84 212 202 287 134 86 515 129 777 86z m2326 2 c166 -13 285 -34 382 -67
103 -35 152 -65 211 -129 48 -52 49 -55 46 -109 -5 -96 -61 -181 -177 -270
-76 -58 -165 -106 -233 -125 -81 -23 -242 -32 -373 -21 -288 25 -461 111 -550
271 -62 111 -30 251 81 362 49 49 59 54 133 71 163 36 224 38 480 17z m-296
-4302 c0 -229 3 -365 10 -372 5 -7 13 -36 17 -65 4 -29 11 -55 15 -58 5 -3 9
-54 9 -114 0 -62 4 -111 10 -115 6 -4 10 -63 10 -143 l0 -137 -27 -12 c-16 -7
-46 -20 -68 -29 -22 -9 -90 -40 -152 -70 -62 -30 -115 -54 -118 -54 -7 0 -199
-94 -205 -101 -3 -3 -36 -18 -75 -34 -38 -16 -85 -37 -103 -47 -18 -10 -37
-18 -43 -18 -6 0 -27 -7 -47 -16 -80 -35 -95 -40 -191 -65 -41 -10 -91 -19
-112 -19 -21 0 -41 -4 -44 -10 -4 -6 -67 -10 -155 -10 -88 0 -151 4 -155 10
-3 6 -27 10 -52 10 -26 0 -60 4 -77 9 -164 51 -207 67 -255 93 -31 17 -77 48
-103 69 -26 22 -51 39 -56 39 -5 0 -17 9 -27 20 -22 25 -71 50 -97 50 -17 0
-18 18 -18 391 l0 390 28 -19 c43 -30 112 -36 226 -17 55 9 109 21 118 26 10
5 33 9 52 9 19 0 37 4 40 9 3 5 23 11 43 14 78 11 158 30 168 38 5 5 21 9 36
9 15 0 31 5 34 10 3 6 17 10 31 10 13 0 24 5 24 10 0 6 9 10 20 10 22 0 106
26 132 40 10 6 27 10 37 10 11 0 22 4 25 9 3 4 24 11 47 15 23 4 60 15 82 26
22 11 48 20 57 20 9 0 20 4 25 8 12 10 67 28 114 37 60 12 189 70 459 203 72
35 159 116 265 246 21 25 40 46 43 46 2 0 4 -162 3 -361z m1186 299 c4 -18 11
-51 17 -73 13 -56 28 -133 35 -180 3 -22 9 -44 13 -50 5 -5 11 -47 15 -93 4
-45 12 -85 16 -88 5 -3 9 -25 9 -49 0 -24 5 -47 10 -50 6 -3 10 -28 10 -55 0
-27 4 -51 9 -54 4 -3 11 -45 15 -93 4 -48 11 -92 16 -98 4 -5 10 -28 13 -50
10 -69 18 -109 27 -130 7 -19 24 -105 37 -188 3 -20 9 -40 14 -43 5 -3 9 -18
9 -34 0 -16 5 -32 10 -35 6 -3 10 -17 10 -30 0 -13 5 -27 11 -30 18 -12 -20
-43 -59 -48 -51 -7 -93 -17 -117 -27 -11 -4 -58 -20 -105 -34 -47 -15 -94 -30
-105 -35 -11 -5 -38 -14 -60 -21 -22 -7 -60 -21 -85 -32 -114 -50 -185 -83
-190 -88 -3 -3 -18 -11 -34 -18 -36 -16 -72 -43 -140 -104 -29 -27 -62 -48
-74 -48 -11 0 -34 -11 -49 -24 -22 -20 -26 -27 -15 -37 6 -7 12 -28 12 -46 l0
-33 84 0 c47 0 88 -4 91 -10 3 -5 14 -10 24 -10 70 0 331 -195 417 -311 10
-14 37 -50 60 -80 22 -30 48 -68 57 -86 9 -17 22 -37 30 -45 7 -7 26 -44 41
-83 15 -38 32 -78 37 -87 5 -10 9 -28 9 -41 0 -13 5 -28 10 -33 27 -27 27
-491 0 -518 -6 -6 -10 -25 -10 -42 0 -18 -4 -36 -10 -39 -5 -3 -10 -19 -10
-35 0 -16 -4 -32 -10 -35 -5 -3 -10 -15 -10 -25 0 -19 -42 -156 -60 -195 -5
-11 -17 -45 -26 -75 -8 -30 -20 -66 -26 -80 -18 -43 -26 -63 -48 -125 -12 -33
-28 -76 -37 -95 -8 -19 -19 -44 -24 -55 -5 -11 -18 -45 -30 -75 -11 -30 -27
-71 -36 -90 -8 -19 -19 -44 -23 -55 -32 -76 -53 -121 -133 -285 -50 -102 -110
-218 -134 -258 -24 -41 -43 -76 -43 -78 0 -4 -42 -75 -78 -130 -6 -10 -16 -28
-21 -39 -5 -12 -16 -27 -25 -34 -9 -7 -16 -17 -16 -21 0 -8 -160 -250 -243
-367 -20 -29 -37 -55 -37 -57 0 -3 -29 -44 -65 -92 -36 -48 -65 -95 -65 -104
0 -9 -12 -27 -26 -41 -15 -13 -40 -41 -55 -63 -24 -32 -30 -36 -35 -21 -4 10
-2 26 4 36 7 10 12 30 12 43 0 14 4 27 9 30 5 3 12 37 16 76 4 39 11 73 16 76
5 3 9 20 9 39 0 19 5 37 10 40 6 3 10 24 10 45 0 21 4 41 9 44 5 3 12 42 16
86 4 44 11 83 16 86 5 3 9 24 9 48 0 23 4 46 9 51 5 6 12 33 15 60 3 28 13
106 21 175 9 69 18 157 21 195 3 39 9 79 14 90 5 11 12 61 15 110 3 50 10 153
15 230 6 77 15 377 21 666 14 655 -3 1743 -36 2292 -5 78 -3 106 9 132 20 41
20 65 2 65 -20 0 -28 57 -56 390 -6 74 -15 143 -20 152 -13 24 -13 58 1 58 7
0 8 36 5 113 -4 61 -10 196 -14 299 l-7 186 215 6 c210 6 389 17 560 34 47 5
126 9 176 10 l92 2 7 -32z m-4175 -198 c85 -6 286 -9 447 -8 l292 3 4 -205 c2
-114 9 -225 16 -250 14 -54 14 -966 0 -1185 -6 -77 -12 -178 -15 -225 -2 -47
-9 -94 -14 -105 -5 -11 -12 -54 -14 -95 -6 -92 -33 -383 -46 -502 -6 -49 -14
-127 -20 -175 -5 -49 -14 -124 -20 -168 -5 -44 -15 -139 -22 -212 -7 -72 -16
-135 -20 -139 -5 -4 -8 -30 -8 -59 0 -28 -4 -55 -9 -60 -5 -6 -11 -32 -14 -60
-7 -67 -23 -137 -48 -209 -17 -46 -19 -64 -10 -78 14 -22 14 -55 1 -63 -5 -3
-10 -25 -10 -49 0 -23 -4 -46 -9 -51 -5 -6 -12 -28 -15 -50 -22 -156 -33 -222
-38 -235 -7 -15 -15 -61 -25 -140 -3 -25 -9 -49 -13 -55 -4 -5 -11 -45 -15
-88 -4 -42 -11 -80 -16 -83 -5 -3 -9 -25 -9 -49 0 -24 -4 -47 -10 -50 -5 -3
-10 -23 -10 -44 0 -21 -3 -41 -7 -45 -5 -4 -13 -40 -20 -79 -22 -131 -24 -142
-33 -162 -9 -22 -15 -49 -31 -135 -5 -30 -14 -63 -19 -72 -6 -10 -10 -27 -10
-38 0 -11 -4 -28 -9 -38 -5 -9 -14 -37 -21 -62 -7 -25 -16 -53 -21 -62 -5 -9
-12 -35 -15 -58 -4 -22 -11 -43 -15 -46 -5 -3 -9 -16 -9 -29 0 -13 -4 -27 -10
-30 -5 -3 -10 -17 -10 -30 0 -13 -4 -27 -10 -30 -5 -3 -10 -17 -10 -29 0 -13
-6 -29 -14 -35 -12 -10 -17 -6 -27 23 -7 20 -16 36 -19 36 -4 0 -15 18 -26 40
-11 24 -28 43 -41 46 -22 6 -133 142 -133 162 0 5 -6 15 -14 21 -19 16 -66
106 -66 126 0 8 -6 15 -13 15 -6 0 -18 15 -26 33 -7 17 -20 46 -29 62 -165
330 -232 465 -232 471 0 4 -11 30 -24 58 -32 70 -45 103 -63 156 -8 25 -20 59
-28 75 -7 17 -19 50 -26 75 -7 25 -16 49 -21 55 -4 5 -8 18 -8 30 0 12 -4 25
-8 30 -5 6 -14 30 -22 55 -7 25 -19 64 -26 88 -8 23 -14 51 -14 62 0 10 -4 22
-10 25 -5 3 -10 19 -10 35 0 16 -4 32 -10 35 -5 3 -10 19 -10 35 0 16 -4 31
-9 34 -5 3 -12 41 -16 83 -4 43 -11 83 -15 88 -7 9 -13 41 -26 160 -3 28 -11
56 -17 63 -17 21 -16 497 2 542 33 86 31 82 92 197 23 43 50 90 60 105 11 14
19 30 19 35 0 6 9 18 20 28 11 10 20 22 20 27 0 14 97 163 120 183 11 10 20
23 20 30 0 25 253 249 352 311 51 31 212 114 223 114 3 0 29 11 58 25 39 20
61 24 88 20 41 -7 46 -3 66 55 18 49 16 73 -7 103 -11 14 -20 31 -20 39 0 18
-65 79 -113 106 -21 12 -51 22 -67 22 -16 0 -32 5 -35 10 -3 6 -24 10 -45 10
-21 0 -41 4 -44 9 -3 5 -20 11 -38 14 -101 17 -155 29 -170 37 -10 6 -33 10
-52 10 -19 0 -38 5 -41 10 -3 6 -28 10 -54 10 -26 0 -52 5 -58 11 -12 12 -137
8 -165 -5 -25 -11 -23 9 7 68 14 27 25 53 25 57 0 15 72 163 94 194 26 36 74
135 112 230 15 39 31 74 36 79 4 6 8 20 8 32 0 13 4 25 9 29 6 3 13 26 17 50
3 25 10 48 15 51 5 3 9 18 9 34 0 16 5 32 10 35 6 3 10 24 10 45 0 21 4 41 9
44 4 3 12 43 16 88 4 46 10 88 15 93 8 10 17 50 27 118 6 43 19 47 35 12 9
-19 14 -22 25 -14 15 13 17 57 4 79 -14 21 -2 33 28 26 14 -3 96 -11 181 -16z
m5125 -319 c94 -6 178 -16 187 -21 10 -6 39 -10 66 -10 26 0 52 -4 57 -9 6 -5
30 -12 55 -15 114 -14 219 -32 226 -38 4 -5 24 -8 45 -8 21 0 41 -4 44 -10 3
-5 23 -10 44 -10 21 0 41 -3 45 -7 7 -7 91 -24 200 -40 22 -3 60 -18 86 -33
26 -15 57 -31 70 -35 13 -4 45 -20 71 -36 26 -15 64 -31 84 -35 19 -3 35 -10
35 -15 0 -5 9 -9 20 -9 11 0 28 -4 38 -9 31 -16 66 -29 147 -56 44 -14 88 -30
97 -35 10 -6 23 -10 29 -10 16 0 230 -108 250 -125 8 -8 19 -15 23 -15 8 0
112 -67 133 -85 6 -5 37 -30 69 -55 96 -74 294 -282 294 -308 0 -6 4 -12 8
-14 8 -3 102 -134 102 -142 0 -2 27 -50 60 -106 33 -56 60 -104 60 -106 0 -2
12 -23 27 -47 14 -23 42 -71 61 -107 19 -36 42 -76 51 -90 19 -28 71 -133 71
-144 0 -4 16 -40 35 -80 19 -41 35 -79 35 -84 0 -6 10 -30 21 -54 12 -23 25
-50 29 -58 4 -9 11 -31 15 -50 4 -19 11 -41 15 -50 8 -15 26 -59 41 -95 13
-33 36 -107 49 -155 7 -25 16 -53 21 -62 5 -10 9 -26 9 -36 0 -10 3 -22 8 -26
4 -4 12 -33 19 -64 6 -31 16 -74 22 -94 26 -90 33 -117 47 -178 8 -36 17 -84
21 -108 3 -23 10 -45 14 -48 5 -3 9 -18 9 -34 0 -16 4 -31 9 -34 5 -3 11 -20
14 -38 17 -101 29 -155 37 -170 6 -10 10 -29 10 -42 0 -14 5 -28 10 -31 6 -3
10 -19 10 -35 0 -16 4 -31 9 -34 5 -4 12 -29 16 -58 4 -29 11 -59 15 -68 5 -8
14 -35 20 -60 7 -25 16 -54 20 -65 5 -11 16 -54 26 -95 10 -41 21 -79 26 -84
4 -6 8 -22 8 -37 0 -15 5 -31 10 -34 6 -3 10 -19 10 -34 0 -15 4 -31 9 -36 5
-6 14 -35 19 -65 10 -52 20 -92 43 -185 6 -22 16 -69 24 -105 8 -36 19 -84 24
-107 6 -24 16 -62 22 -85 5 -24 15 -68 20 -98 6 -30 14 -64 19 -75 9 -21 18
-58 27 -112 l5 -31 -78 -6 c-74 -5 -121 -10 -299 -35 -38 -6 -124 -17 -190
-25 -66 -8 -149 -20 -185 -26 -36 -6 -85 -13 -110 -16 -25 -3 -52 -8 -60 -11
-13 -6 -138 -24 -275 -39 -27 -3 -54 -10 -59 -15 -6 -5 -31 -9 -56 -9 -25 0
-50 -4 -56 -9 -5 -5 -29 -11 -54 -14 -25 -3 -83 -13 -130 -21 -47 -9 -104 -19
-128 -22 -23 -4 -45 -11 -48 -15 -3 -5 -20 -9 -38 -9 -18 0 -36 -3 -40 -7 -7
-7 -77 -21 -199 -39 -20 -4 -40 -10 -43 -15 -3 -5 -20 -9 -39 -9 -19 0 -36 -4
-39 -9 -3 -4 -25 -11 -48 -14 -24 -4 -72 -13 -108 -21 -36 -9 -78 -18 -95 -21
-16 -4 -39 -10 -50 -15 -11 -5 -33 -11 -50 -14 -16 -3 -64 -12 -105 -21 -41
-9 -92 -19 -113 -22 -20 -3 -40 -9 -43 -14 -3 -5 -20 -9 -39 -9 -19 0 -36 -4
-39 -9 -3 -5 -20 -11 -38 -14 -101 -17 -155 -29 -170 -37 -10 -6 -26 -10 -36
-10 -9 0 -41 -9 -70 -19 -28 -11 -71 -22 -94 -26 -23 -4 -49 -11 -58 -15 -8
-5 -55 -20 -105 -35 -145 -44 -159 -49 -169 -57 -6 -4 -19 -8 -31 -8 -12 0
-25 -4 -31 -8 -5 -4 -34 -16 -64 -26 -66 -21 -79 -26 -151 -60 -31 -14 -61
-26 -67 -26 -6 0 -26 -8 -44 -18 -18 -10 -49 -24 -68 -32 -19 -7 -67 -28 -107
-47 -40 -18 -74 -33 -77 -33 -9 0 -132 -61 -171 -85 -22 -13 -64 -36 -93 -51
-30 -15 -59 -32 -65 -38 -7 -7 -28 -20 -47 -29 -19 -10 -64 -36 -100 -59 -100
-63 -122 -76 -160 -94 -19 -10 -48 -27 -65 -38 -16 -12 -39 -26 -50 -33 -98
-59 -156 -95 -167 -106 -8 -6 -21 -16 -30 -22 -50 -30 -157 -106 -168 -120 -7
-8 -17 -15 -22 -15 -5 0 -34 -19 -63 -42 -65 -52 -100 -78 -130 -98 -42 -28
-100 -74 -175 -140 -41 -37 -91 -80 -110 -96 -120 -99 -473 -465 -612 -632
-86 -104 -98 -120 -98 -129 0 -5 -12 -20 -27 -34 -23 -21 -25 -22 -18 -4 9 24
22 77 40 170 25 123 31 149 47 185 9 19 19 46 23 60 3 14 11 36 17 50 6 14 15
36 21 50 5 14 13 33 18 42 5 10 9 22 9 28 0 13 67 198 80 222 5 9 13 35 16 58
4 22 11 43 15 46 5 3 9 16 9 30 0 13 5 24 10 24 6 0 10 11 10 24 0 14 4 27 9
30 5 3 12 26 15 51 4 24 11 47 17 50 5 4 9 15 9 26 0 10 4 27 9 37 23 44 42
107 57 182 3 14 10 36 16 50 21 48 27 65 32 90 22 102 32 140 39 146 4 4 7 20
7 35 0 15 5 31 10 34 6 3 10 19 10 35 0 16 4 31 9 34 5 3 12 33 16 66 4 33 11
63 16 66 5 3 9 18 9 34 0 16 5 32 10 35 6 3 10 19 10 35 0 16 5 32 10 35 6 3
10 20 10 37 0 37 34 95 60 103 25 8 310 293 310 310 0 8 3 15 8 17 9 4 82 95
82 102 0 4 15 28 33 54 17 26 43 67 56 92 13 25 45 69 70 97 97 111 121 141
121 150 0 6 8 17 17 24 25 21 213 280 213 294 0 1 17 29 39 61 21 33 53 86 71
119 18 33 37 65 42 71 12 16 208 410 208 419 0 5 11 31 24 59 29 63 49 111 66
156 6 19 16 45 21 58 23 57 28 71 44 127 19 63 31 98 46 127 5 10 9 27 9 37 0
11 4 22 9 25 4 3 11 29 15 58 4 29 11 57 15 63 5 5 11 24 14 40 3 17 11 53 17
80 23 105 32 225 26 375 -2 85 -9 169 -15 185 -5 17 -15 50 -21 75 -7 25 -16
53 -21 62 -5 10 -9 24 -9 31 0 14 -58 128 -96 188 -13 21 -24 42 -24 47 0 5
-9 17 -20 27 -11 10 -20 24 -20 32 0 19 -285 305 -339 339 -71 46 -134 84
-158 94 -11 5 -24 13 -27 18 -6 10 6 17 119 76 69 35 223 106 232 106 5 0 30
11 57 25 27 14 57 25 66 25 9 0 20 4 26 9 14 13 157 61 182 61 11 0 24 5 27
10 10 16 41 11 60 -10 25 -28 40 -25 55 10 7 16 18 35 26 41 21 18 18 102 -5
123 -13 12 -20 36 -24 89 -6 67 -18 118 -38 159 -5 10 -9 28 -9 41 0 13 -3 27
-7 31 -7 7 -21 69 -39 174 -4 18 -10 35 -15 38 -5 3 -9 20 -9 39 0 19 -4 36
-9 39 -5 3 -12 41 -16 83 -4 43 -11 83 -15 88 -9 11 -20 73 -23 124 -2 29 2
36 23 42 34 10 448 4 655 -10z m-8805 -4210 c275 -24 389 -36 396 -43 4 -5 34
-8 66 -8 32 0 58 -4 58 -9 0 -5 24 -12 53 -15 90 -9 142 -18 152 -26 6 -4 40
-11 77 -15 37 -3 70 -11 73 -16 4 -5 21 -9 40 -9 19 0 37 -4 40 -10 3 -5 19
-10 34 -10 15 0 31 -3 35 -7 7 -7 75 -25 151 -40 17 -3 35 -9 40 -13 6 -4 37
-14 70 -24 33 -9 68 -21 77 -27 10 -5 25 -9 33 -9 8 0 23 -4 33 -9 35 -19 112
-51 122 -51 10 0 45 -15 136 -57 28 -12 54 -23 58 -23 5 0 45 -17 89 -39 45
-21 123 -57 172 -80 99 -46 137 -66 235 -119 36 -19 94 -50 130 -69 36 -19 70
-38 75 -43 6 -4 35 -21 65 -38 150 -80 181 -98 197 -112 10 -8 34 -23 53 -32
19 -10 44 -24 54 -30 11 -7 44 -29 74 -48 30 -19 67 -43 81 -52 14 -10 35 -22
46 -27 12 -5 27 -16 34 -25 7 -9 20 -16 27 -16 8 0 14 -4 14 -8 0 -4 12 -15
28 -24 15 -9 36 -25 48 -35 11 -10 27 -22 36 -28 29 -19 93 -64 133 -94 22
-17 56 -41 75 -55 19 -13 43 -32 52 -42 10 -11 43 -39 73 -64 31 -25 84 -70
120 -100 35 -30 98 -84 140 -120 96 -82 507 -492 600 -599 39 -45 96 -110 128
-144 31 -35 57 -67 57 -71 0 -5 21 -31 46 -60 41 -45 74 -89 109 -145 20 -33
88 -137 106 -163 11 -15 19 -30 19 -34 0 -3 14 -26 30 -51 16 -24 30 -46 30
-49 0 -3 11 -20 25 -38 14 -18 25 -36 25 -40 0 -3 15 -28 33 -54 18 -26 41
-64 52 -84 11 -21 23 -38 27 -38 5 0 8 -6 8 -14 0 -7 7 -19 15 -26 9 -7 23
-29 32 -49 9 -20 22 -43 29 -51 18 -22 83 -155 117 -240 8 -19 25 -62 37 -95
13 -33 34 -73 47 -88 27 -33 29 -50 7 -71 -21 -21 -46 -20 -77 4 -14 11 -28
20 -32 20 -4 0 -35 17 -68 38 -33 20 -110 62 -171 92 -92 46 -113 61 -125 88
-8 17 -21 32 -28 32 -7 0 -13 3 -13 8 0 4 -21 16 -47 26 -26 11 -79 39 -117
63 -39 24 -74 43 -78 43 -5 0 -25 11 -46 23 -20 13 -77 45 -127 72 -49 26 -94
51 -100 55 -5 4 -62 34 -125 67 -63 33 -140 74 -170 90 -30 17 -138 73 -240
125 -244 125 -274 142 -278 151 -2 4 -8 7 -14 7 -12 0 -120 50 -128 60 -7 7
-46 27 -495 255 -209 105 -410 208 -446 228 -69 38 -267 140 -429 223 -52 27
-97 51 -100 54 -5 5 -44 26 -330 172 -96 50 -180 94 -185 98 -6 5 -95 52 -200
105 -104 53 -194 100 -199 104 -6 5 -76 42 -156 83 -80 41 -163 85 -185 98
-22 13 -56 31 -75 41 -19 9 -57 28 -85 42 -27 14 -84 43 -125 66 -41 22 -145
76 -230 118 -85 43 -157 80 -160 83 -8 9 -119 60 -130 60 -6 0 -10 5 -10 10 0
6 -5 10 -12 10 -15 0 -482 233 -486 243 -2 4 -8 7 -13 7 -14 0 -124 53 -127
62 -2 4 -8 8 -13 8 -14 0 -343 163 -432 213 -42 25 -139 76 -215 113 -75 38
-138 72 -140 76 -2 5 -11 8 -19 8 -13 0 -13 3 -3 15 7 8 21 15 31 15 10 0 21
5 24 10 3 6 16 10 29 10 12 0 26 4 31 8 6 5 37 17 70 26 33 10 71 21 85 26 14
4 45 14 70 21 25 7 67 26 93 41 59 34 129 51 178 43 20 -4 45 -2 55 3 43 22
219 51 359 59 44 2 84 9 90 14 11 11 322 5 495 -10z m3665 -1311 c3 -6 -1 -7
-9 -4 -18 7 -21 14 -7 14 6 0 13 -4 16 -10z m9992 -2827 c-3 -10 -5 -2 -5 17
0 19 2 27 5 18 2 -10 2 -26 0 -35z"/>
<path d="M11395 15968 c-150 -16 -286 -52 -314 -82 -18 -19 -18 -24 -5 -55 16
-38 21 -38 129 -5 50 15 99 18 290 18 151 1 249 -3 285 -12 30 -6 87 -19 125
-27 117 -24 155 -35 195 -55 47 -24 50 -24 50 -6 0 38 -164 140 -290 181 -30
10 -64 21 -75 26 -76 29 -220 36 -390 17z"/>
<path d="M10280 12999 c-47 -10 -123 -23 -170 -29 -47 -6 -116 -15 -155 -20
-97 -13 -199 -12 -230 2 -31 14 -39 7 -31 -26 14 -58 116 -85 311 -85 205 0
340 19 416 57 76 37 115 69 124 100 6 22 5 22 -87 21 -51 -1 -131 -10 -178
-20z"/>
<path d="M9020 15385 c-8 -2 -49 -8 -90 -15 -81 -13 -95 -16 -212 -56 -97 -33
-111 -47 -93 -91 15 -35 28 -39 72 -22 41 16 185 50 190 45 3 -3 0 -21 -7 -41
-15 -45 -5 -116 20 -147 15 -19 27 -23 67 -22 52 2 116 29 145 60 23 27 48 92
48 127 l0 30 49 -6 c50 -6 131 -41 183 -80 26 -19 29 -19 46 -4 24 22 45 84
40 121 -7 67 -129 107 -318 105 -69 -1 -132 -3 -140 -4z"/>
<path d="M11615 15300 c-181 -30 -281 -59 -393 -112 -90 -43 -113 -69 -93
-107 13 -24 29 -26 56 -8 39 26 151 65 249 86 54 12 101 20 103 17 2 -2 -3
-18 -11 -35 -20 -38 -20 -64 0 -104 48 -96 111 -114 171 -49 49 53 73 104 73
157 l0 46 63 -6 c85 -9 184 -39 230 -70 47 -33 67 -29 89 15 25 52 23 104 -4
122 -44 27 -134 48 -253 58 -148 12 -146 12 -280 -10z"/>
<path d="M4430 1604 c-47 -47 -103 -99 -125 -115 -66 -48 -203 -139 -209 -139
-3 0 -29 -15 -58 -33 -49 -31 -320 -167 -333 -167 -3 0 -38 -15 -78 -34 -125
-58 -145 -66 -166 -66 -12 0 -21 -4 -21 -9 0 -5 -10 -11 -22 -14 -19 -5 -77
-25 -233 -81 -11 -4 -27 -11 -36 -16 -9 -5 -33 -12 -53 -15 -20 -4 -39 -11
-42 -16 -3 -5 -16 -9 -29 -9 -13 0 -27 -4 -30 -10 -3 -5 -15 -10 -26 -10 -10
0 -27 -4 -37 -9 -9 -5 -44 -17 -77 -26 -201 -54 -207 -56 -240 -66 -16 -4 -56
-11 -88 -15 -32 -4 -60 -11 -63 -15 -3 -5 -25 -9 -49 -9 -24 0 -47 -5 -50 -10
-3 -6 -28 -10 -54 -10 -26 0 -51 -4 -57 -9 -5 -5 -29 -11 -54 -14 -57 -7 -153
-28 -160 -36 -3 -3 -23 -15 -44 -26 -45 -23 -56 -42 -29 -51 10 -3 27 -10 38
-16 25 -14 325 -12 339 2 5 5 27 10 47 10 21 0 40 4 43 9 3 4 37 11 76 15 38
4 72 11 75 17 4 5 21 9 40 9 19 0 37 4 40 10 3 5 19 10 35 10 16 0 31 4 34 9
3 5 30 12 61 16 30 3 57 11 60 16 4 5 17 9 31 9 13 0 34 5 47 12 48 24 57 28
76 28 11 0 22 4 25 9 3 5 22 12 43 16 20 3 55 15 77 25 23 10 77 30 121 45 44
15 84 31 90 36 5 5 18 9 30 9 12 0 25 4 30 8 6 5 33 17 60 26 28 10 77 31 110
46 33 15 71 31 84 35 33 10 327 161 361 185 16 11 31 20 35 20 6 0 156 94 190
120 47 36 255 245 255 257 0 7 3 13 8 13 9 0 42 58 42 75 0 14 -29 35 -47 35
-5 0 -47 -39 -93 -86z"/>
</g>
</svg>
